<?xml version="1.0" encoding="UTF-8"?>
<svg id="Layer_2" data-name="Layer 2" xmlns="http://www.w3.org/2000/svg" viewBox="0 0 471.1 112.92">
  <defs>
    <style>
      .cls-1 {
        fill: #c2c48d;
      }

      .cls-2 {
        fill: #264951;
      }
    </style>
  </defs>
  <g id="Layer_1-2" data-name="Layer 1">
    <g>
      <path class="cls-1" d="M471.1,78.98s0,.23,0,.34c0-.11,0-.34,0-.34h0Z"/>
      <path class="cls-1" d="M471.1,79.63h0c0-.16,0-.28,0-.42,0,.14,0,.26,0,.42Z"/>
      <path class="cls-1" d="M471.09,78.91c-.09-4.23-.98-8.28-2.52-11.97-2.44-5.88-6.52-10.88-11.67-14.42-2.58-1.77-5.43-3.18-8.47-4.14-3.01-.95-6.22-1.43-9.52-1.44-.04,0-.07.04-.1.04h-17.73v65.95h15.59c.18,0,.36-.04.54-.04,4.54-.07,8.88-1.02,12.85-2.67,6.18-2.57,11.43-6.86,15.15-12.28,1.86-2.71,3.34-5.7,4.35-8.9.94-2.97,1.47-6.11,1.54-9.35,0-.14,0-.28,0-.42h0c0-.12,0-.23,0-.34ZM459.96,88.53c-1.9,4.43-5.1,8.22-9.14,10.9-2.02,1.34-4.24,2.44-6.62,3.16-2.38.73-4.91,1.15-7.54,1.15h-6.42v-47.61h8.67c3.16,0,6.15.63,8.88,1.8,4.14,1.78,7.68,4.74,10.18,8.52,1.25,1.88,2.24,3.95,2.92,6.17.64,2.12,1.01,4.36,1.04,6.7-.06,3.27-.75,6.36-1.97,9.2Z"/>
      <path class="cls-1" d="M438.9,46.9h-.1.1Z"/>
      <path class="cls-1" d="M437.15,112.85v.08h-.49c.18,0,.33-.07.49-.08Z"/>
      <polygon class="cls-1" points="288.98 46.9 288.98 46.9 288.98 46.9 288.98 46.9"/>
      <polygon class="cls-1" points="344.53 46.98 344.53 112.92 335.36 112.92 335.36 66.44 312.2 112.85 312.2 112.85 289.04 66.41 289.04 112.92 279.87 112.92 279.87 46.98 288.98 46.98 288.98 46.94 312.15 93.62 335.36 46.93 335.36 46.98 344.53 46.98"/>
      <path class="cls-1" d="M411.46,67.25c-2.4-5.89-6.41-10.92-11.5-14.49-2.54-1.78-5.36-3.2-8.37-4.18-3.01-.97-6.21-1.5-9.52-1.49-4.41,0-8.64.93-12.47,2.61-5.74,2.52-10.59,6.71-14,11.96-1.71,2.62-3.06,5.52-3.98,8.6-.92,3.08-1.42,6.36-1.42,9.74,0,4.51.88,8.83,2.48,12.76,2.4,5.89,6.41,10.92,11.5,14.49,2.54,1.78,5.36,3.2,8.37,4.17,3.01.97,6.21,1.5,9.52,1.5,4.41,0,8.64-.93,12.47-2.61,5.74-2.52,10.59-6.71,14.01-11.96,1.71-2.62,3.06-5.52,3.98-8.6.92-3.08,1.42-6.36,1.42-9.74,0-4.51-.88-8.83-2.48-12.76ZM402.97,89.3c-1.74,4.27-4.65,7.9-8.27,10.44-1.81,1.27-3.8,2.27-5.92,2.96-2.12.68-4.36,1.05-6.71,1.05-3.12,0-6.08-.65-8.78-1.84-2.03-.89-3.91-2.08-5.6-3.53-2.53-2.17-4.62-4.91-6.07-8.03-1.45-3.12-2.26-6.62-2.26-10.35,0-3.31.64-6.45,1.81-9.3,1.74-4.27,4.65-7.9,8.27-10.44,1.81-1.27,3.8-2.27,5.92-2.95,2.12-.68,4.36-1.05,6.71-1.05,3.12,0,6.08.65,8.78,1.84,2.03.89,3.91,2.08,5.6,3.53,2.53,2.17,4.62,4.91,6.06,8.03,1.45,3.12,2.26,6.63,2.26,10.35,0,3.31-.64,6.45-1.8,9.3Z"/>
      <polygon class="cls-2" points="161.03 97.13 161.03 112.81 79.08 112.81 79.08 .06 160.76 .06 160.76 15.73 94.75 15.73 94.75 49.56 138.48 49.56 138.48 65.23 94.75 65.23 94.75 97.13 161.03 97.13"/>
      <path class="cls-2" d="M260.89,87.64c2.92-4.49,5.23-9.43,6.81-14.7,1.58-5.27,2.43-10.87,2.43-16.65,0-7.71-1.51-15.09-4.24-21.81-4.11-10.08-10.97-18.67-19.66-24.77-4.35-3.05-9.16-5.48-14.31-7.14C226.77.89,221.29,0,215.63,0c-7.54,0-14.77,1.59-21.31,4.47-9.82,4.31-18.11,11.48-23.95,20.45-2.92,4.49-5.23,9.43-6.81,14.7-1.58,5.27-2.43,10.87-2.43,16.65,0,7.71,1.51,15.09,4.25,21.81,4.11,10.08,10.97,18.67,19.66,24.77,4.35,3.05,9.16,5.48,14.3,7.14,5.15,1.66,10.63,2.56,16.28,2.56,7.54,0,14.77-1.59,21.31-4.47,2.52-1.11,4.94-2.34,7.24-3.81l6.65,8.53h19.21l-14.16-18.53c1.83-2.06,3.5-4.32,5.01-6.64ZM239.92,73.41l-12.43,9.55,6.95,8.85c-2.32,1.35-4.77,2.45-7.34,3.28-3.62,1.17-7.46,1.8-11.47,1.8-5.34,0-10.39-1.12-15.01-3.15-3.46-1.52-6.68-3.56-9.57-6.03-4.33-3.71-7.89-8.39-10.37-13.73-2.48-5.34-3.87-11.32-3.87-17.7,0-5.67,1.1-11.02,3.09-15.9,2.98-7.31,7.95-13.51,14.15-17.85,3.1-2.17,6.5-3.88,10.12-5.05,3.62-1.17,7.46-1.8,11.46-1.8,5.34,0,10.39,1.12,15.01,3.14,3.46,1.52,6.68,3.56,9.57,6.03,4.33,3.71,7.89,8.39,10.37,13.73,2.48,5.34,3.87,11.33,3.87,17.7,0,5.67-1.11,11.02-3.09,15.9-1.36,3.35-3.15,6.47-5.28,9.28l-6.17-8.04Z"/>
      <path class="cls-2" d="M69.54,78.79c0,3.19-.46,6.31-1.32,9.27-.86,2.96-2.12,5.77-3.72,8.35-3.2,5.16-7.77,9.45-13.29,12.34-3.67,1.93-7.77,3.24-12.11,3.78-1.49.18-2.98.28-4.45.28-4.84,0-9.53-.97-13.82-2.75-4.29-1.78-8.19-4.36-11.45-7.64-2.17-2.18-4.06-4.67-5.58-7.42-2.02-3.67-3.36-7.81-3.8-12.22l16.42-1.64c.16,1.61.56,3.11,1.16,4.52.6,1.41,1.42,2.73,2.42,3.94,2,2.41,4.77,4.36,7.93,5.52,2.11.77,4.39,1.19,6.72,1.19.8,0,1.61-.05,2.42-.15,1.78-.22,3.43-.67,4.97-1.31,1.54-.64,2.95-1.47,4.22-2.46,2.54-1.97,4.48-4.57,5.62-7.46.76-1.93,1.17-3.99,1.17-6.14,0-.75-.05-1.51-.15-2.28-.18-1.3-.48-2.33-.88-3.23-.4-.89-.89-1.67-1.53-2.42-.43-.5-.92-1-1.5-1.49-.77-.65-1.69-1.3-2.76-1.92-1.42-.84-3.11-1.64-5-2.4-2.52-1.02-5.4-1.97-8.47-2.92l.02-.07c-2.25-.7-4.54-1.45-6.81-2.32-2.61-.99-5.2-2.13-7.71-3.58-1.67-.96-3.31-2.06-4.86-3.35-2.07-1.72-3.98-3.79-5.53-6.25-.88-1.4-1.64-2.92-2.25-4.54-.69-1.85-1.18-3.81-1.45-5.86-.19-1.4-.28-2.8-.28-4.19,0-3,.43-5.93,1.25-8.71.81-2.78,2-5.42,3.51-7.84,3.02-4.85,7.33-8.86,12.51-11.58,1.73-.9,3.55-1.66,5.46-2.26,1.91-.6,3.89-1.03,5.93-1.28,1.4-.17,2.79-.26,4.17-.26,4.85,0,9.53,1.05,13.75,2.95,4.22,1.91,7.99,4.66,11.06,8.1,2.04,2.29,3.77,4.9,5.1,7.74l-14.96,6.96c-.94-2.03-2.34-3.84-4.09-5.31-1.74-1.48-3.83-2.6-6.09-3.27-1.52-.44-3.11-.68-4.76-.68-.7,0-1.42.13-2.14.13h0c-1.58.28-3.06.6-4.43,1.16-1.37.57-2.62,1.3-3.75,2.18-2.25,1.75-3.97,4.04-4.97,6.58-.67,1.7-1.03,3.5-1.03,5.38,0,.65.04,1.32.13,1.99.15,1.14.42,2.01.76,2.77.34.76.76,1.41,1.31,2.06.37.43.8.86,1.31,1.28.68.57,1.49,1.14,2.45,1.7,1.28.75,2.8,1.47,4.53,2.16,2.3.92,4.93,1.79,7.76,2.66l-.02.08c2.48.78,4.97,1.6,7.46,2.55,2.8,1.08,5.59,2.31,8.27,3.85,1.78,1.03,3.53,2.21,5.18,3.58,2.19,1.83,4.22,4.03,5.85,6.64.93,1.49,1.74,3.1,2.37,4.81.73,1.96,1.25,4.04,1.54,6.22.2,1.5.3,3,.3,4.48Z"/>
    </g>
  </g>
</svg>